<?xml version="1.0" encoding="utf-8"?>
<!-- Generator: Adobe Illustrator 24.0.2, SVG Export Plug-In . SVG Version: 6.00 Build 0)  -->
<svg version="1.1" id="Capa_1" xmlns="http://www.w3.org/2000/svg" xmlns:xlink="http://www.w3.org/1999/xlink" x="0px" y="0px"
	 viewBox="0 0 128 128" style="enable-background:new 0 0 128 128;" xml:space="preserve">
<style type="text/css">
	.st0{fill:#203C8A;}
	.st1{fill:#F39421;}
</style>
<g>
	<path class="st0" d="M91.3,30.7c-0.8,4.9-3.6,8.5-6.7,12c-7.8,8.7-17.5,14.8-27.5,20.6c-4.3,2.5-8.6,4.9-12.4,8
		c-12.1,9.6-16.1,23.9-11.2,38.6c0.2,0.5,0.3,1,0.3,1.6c-4.8-5.4-7.2-11.8-7.5-18.9C25.8,81.1,30.9,72,38.9,64.3
		c7.6-7.3,16.2-13.1,25.3-18.3c0.7-0.4,1.3-0.8,1.9-1.8c-13.9,0-27.8,0.1-41.7,0.1c-0.8-4.4,2.1-9.8,6.4-11.8c2.2-1,4.6-1.7,7-1.7
		c17.5-0.2,35-0.2,52.5-0.2C90.6,30.6,90.9,30.7,91.3,30.7z"/>
	<path class="st1" d="M94.7,17.5c7.4,9.7,8.5,20.3,4.3,31.4c-1.9,5.2-5.1,9.5-9.4,13c-4.5,3.7-8.7,7.9-13.3,11.5
		c-4.1,3.1-8.7,5.6-13.1,8.3c-0.6,0.4-1.2,0.7-1.6,1.7c0.9,0.1,1.8,0.2,2.7,0.2c12.3,0,24.6-0.1,36.9-0.1c2.7,0,2.9,0.3,2.2,3
		c-1.6,5.9-6.1,9.8-12.3,9.9c-17.4,0.2-34.8,0.2-52.3,0.2c-0.5,0-0.9-0.1-2.2-0.4c1.5-2.8,2.6-5.5,4.2-7.7c4.2-6,9.7-10.7,15.7-14.7
		c6.7-4.5,13.8-8.5,20.7-12.7c15.4-9.3,23.3-24.3,17.6-42.7C94.8,18.1,94.8,17.8,94.7,17.5z"/>
	<path class="st0" d="M27.5,107.3c-5.8-4.7-10.6-10.8-14.1-17.8C6.2,75,5.1,60.1,10.5,44.9C20.6,16.4,50.3,1.5,78.9,9
		c1.7,0.5,3.5,0.8,5.1,1.6c5.5,2.8,8.6,6.6,9.5,12.2c-4.5-2.1-9-4.5-13.7-6.3c-22.3-8.1-49,2.5-59.7,23.8c-8.9,17.8-7.9,35.1,3,51.8
		c0.6,0.9,1,1.8,1.3,2.8C25.4,99.1,26.4,103.2,27.5,107.3z"/>
	<path class="st1" d="M35.5,105.4c2.8,1.5,5.3,2.9,8,4.1c19,8.1,36.8,5.7,52.8-7.3c12.1-9.9,17.9-23.2,17.9-38.8
		c0-9.8-2.8-18.8-8.1-27.1c-1.1-1.6-1.6-3.6-2.2-5.5c-0.9-2.8-1.6-5.7-2.5-9.1c1.1,1,2.2,1.7,3,2.6c11,11.5,16.6,25.2,16,41.1
		c-0.8,21.1-10.5,37.1-28.8,47.6c-15.9,9.1-32.6,9.5-49.6,2.9C37.9,114.3,35.2,110.1,35.5,105.4z"/>
</g>
</svg>
