<?xml version="1.0" encoding="utf-8"?>
<!-- Generator: Adobe Illustrator 24.0.2, SVG Export Plug-In . SVG Version: 6.00 Build 0)  -->
<svg version="1.1" id="Capa_1" xmlns="http://www.w3.org/2000/svg" xmlns:xlink="http://www.w3.org/1999/xlink" x="0px" y="0px"
	 viewBox="0 0 841.89 339.23" style="enable-background:new 0 0 841.89 339.23;" xml:space="preserve">
<style type="text/css">
	.st0{fill:#203C8A;}
	.st1{fill:#F39421;}
	.st2{fill:#FFFFFF;}
</style>
<g>
	<g>
		<path class="st0" d="M250.27,81.55c-2.31,13.51-10.06,23.62-18.58,33.1c-21.55,24-48.44,40.97-76,57.08
			c-11.77,6.88-23.82,13.62-34.42,22.09c-33.4,26.69-44.47,66.26-31.01,106.92c0.47,1.43,0.84,2.89,0.79,4.5
			c-13.24-14.96-19.88-32.6-20.75-52.39c-1.4-31.87,12.54-57,34.81-78.5c20.97-20.24,44.88-36.34,70.09-50.67
			c1.87-1.06,3.68-2.22,5.21-4.86c-38.54,0.13-77.08,0.25-115.44,0.38c-2.15-12.13,5.81-27.11,17.79-32.59
			c5.95-2.72,12.82-4.74,19.3-4.82c48.43-0.55,96.86-0.53,145.29-0.67C248.19,81.12,249.01,81.36,250.27,81.55z"/>
		<path class="st1" d="M259.64,45.01c20.44,26.88,23.39,56.16,11.91,86.98c-5.31,14.26-14.21,26.17-26.08,35.99
			c-12.5,10.34-23.98,21.97-36.89,31.74c-11.38,8.61-24.12,15.43-36.25,23.05c-1.6,1.01-3.2,2.03-4.51,4.72
			c2.48,0.2,4.97,0.57,7.45,0.57c34.09-0.07,68.18-0.2,102.28-0.29c7.49-0.02,8.16,0.91,6.19,8.27
			c-4.39,16.46-16.95,27.26-33.96,27.43c-48.22,0.5-96.45,0.46-144.68,0.6c-1.29,0-2.58-0.4-6.08-0.98
			c4.14-7.74,7.17-15.1,11.64-21.45c11.63-16.5,26.77-29.67,43.44-40.71c18.65-12.35,38.08-23.54,57.24-35.13
			c42.5-25.7,64.41-67.22,48.82-118.34C259.94,46.66,259.82,45.83,259.64,45.01z"/>
		<path class="st0" d="M73.41,293.44c-16.09-13.1-29.37-29.82-39.03-49.3c-19.81-39.94-22.74-81.37-7.94-123.29
			C54.38,41.74,136.52,0.51,215.71,21.42c4.75,1.25,9.7,2.3,14.05,4.5c15.24,7.68,23.78,18.37,26.27,33.81
			c-12.47-5.75-24.82-12.55-37.92-17.31c-61.64-22.4-135.67,7-165.18,65.8c-24.67,49.15-21.95,97.17,8.18,143.44
			c1.54,2.37,2.77,5.08,3.51,7.81C67.7,270.84,70.54,282.28,73.41,293.44z"/>
		<path class="st1" d="M95.59,288.32c7.83,4.03,14.72,8.15,22.05,11.25c52.71,22.3,101.93,15.76,146.16-20.32
			c33.59-27.4,49.63-64.09,49.62-107.33c0-27.04-7.64-52.09-22.54-74.9c-2.94-4.5-4.5-10.01-6.11-15.24
			c-2.42-7.87-4.32-15.91-6.78-25.19c3.16,2.65,6.05,4.65,8.42,7.13c30.49,31.84,45.88,69.75,44.21,113.91
			c-2.22,58.43-29.08,102.74-79.63,131.72c-44.06,25.26-90.29,26.43-137.26,8.08C102.29,312.98,94.75,301.17,95.59,288.32z"/>
	</g>
	<g>
		<g>
			<path class="st0" d="M473.39,86.16L397.8,208.45l24.6-0.08c11.63-0.04,19.76-0.79,24.4-2.27c7.56-2.31,14.06-6.54,19.5-12.7
				c5.44-6.15,9.2-14.38,11.26-24.68l3.72-0.01l-5.09,46.73l-118.42,0.39l75.68-122.48l-19.17,0.06
				c-7.44,0.02-12.33,0.26-14.68,0.71c-4.45,0.84-8.62,2.49-12.52,4.95c-3.9,2.46-7.13,5.73-9.69,9.8c-2.56,4.08-4.56,9.23-6,15.47
				l-3.53,0.01l3.4-37.86L473.39,86.16z"/>
			<path class="st0" d="M556.37,211.64l0.01,3.53l-67.6,0.22l-0.01-3.53l4.29-0.01c3.75-0.01,6.77-0.69,9.05-2.03
				c1.65-0.89,2.92-2.43,3.8-4.59c0.69-1.53,1.03-5.53,1.01-12.02l-0.28-85.05c-0.02-6.61-0.39-10.74-1.09-12.39
				c-0.71-1.65-2.12-3.09-4.26-4.32c-2.13-1.23-5.01-1.84-8.63-1.83l-4.29,0.01l-0.01-3.53l67.6-0.22l0.01,3.53l-4.29,0.01
				c-3.75,0.01-6.77,0.69-9.05,2.03c-1.65,0.9-2.95,2.43-3.89,4.59c-0.7,1.53-1.03,5.53-1.01,12.02l0.28,85.05
				c0.02,6.61,0.4,10.74,1.14,12.39c0.74,1.65,2.17,3.09,4.3,4.32c2.13,1.23,5.01,1.84,8.64,1.83L556.37,211.64z"/>
			<path class="st0" d="M612.54,156.06l0.12,36.23c0.02,6.99,0.47,11.39,1.33,13.2c0.86,1.81,2.38,3.25,4.54,4.32
				c2.16,1.08,6.2,1.6,12.11,1.58l0.01,3.53l-66.17,0.22l-0.01-3.53c5.97-0.02,10.02-0.59,12.15-1.71c2.12-1.12,3.61-2.57,4.47-4.35
				c0.85-1.78,1.27-6.17,1.24-13.16l-0.28-83.9c-0.02-6.99-0.47-11.39-1.33-13.2c-0.86-1.81-2.38-3.25-4.54-4.32
				c-2.17-1.07-6.2-1.6-12.11-1.58l-0.01-3.53l60.07-0.2c15.64-0.05,27.08,0.99,34.34,3.13c7.25,2.14,13.18,6.11,17.77,11.91
				c4.6,5.8,6.91,12.61,6.93,20.43c0.03,9.53-3.37,17.43-10.22,23.68c-4.37,3.95-10.5,6.93-18.37,8.93l31.23,43.66
				c4.08,5.65,6.99,9.16,8.71,10.56c2.61,1.96,5.64,3.03,9.07,3.21l0.01,3.53l-40.71,0.13l-41.86-58.78L612.54,156.06z
				 M612.33,92.66l0.19,56.63l5.43-0.02c8.83-0.03,15.44-0.86,19.82-2.5s7.82-4.57,10.31-8.81c2.5-4.23,3.73-9.75,3.71-16.55
				c-0.03-9.85-2.36-17.12-6.98-21.81c-4.63-4.69-12.05-7.02-22.29-6.98L612.33,92.66z"/>
			<path class="st0" d="M754.67,92.67l0.17,52.63l2.58-0.01c8.2-0.03,14.13-2.62,17.8-7.78c3.67-5.16,6-12.76,6.98-22.81l3.62-0.01
				l0.22,67.69l-3.62,0.01c-0.79-7.37-2.41-13.4-4.87-18.1c-2.46-4.7-5.32-7.85-8.56-9.46c-3.25-1.61-7.95-2.4-14.12-2.38
				l0.12,36.42c0.02,7.12,0.34,11.47,0.95,13.06c0.61,1.59,1.74,2.89,3.4,3.9c1.66,1.01,4.33,1.51,8.02,1.5l7.72-0.03
				c12.07-0.04,21.74-2.87,29-8.49c7.26-5.62,12.46-14.15,15.6-25.6l3.53-0.01l-5.68,41.11l-111.74,0.37l-0.01-3.53l4.29-0.01
				c3.75-0.01,6.77-0.69,9.05-2.03c1.65-0.89,2.91-2.43,3.8-4.59c0.69-1.53,1.03-5.53,1.01-12.02l-0.28-85.05
				c-0.02-5.85-0.19-9.44-0.51-10.77c-0.64-2.22-1.83-3.93-3.54-5.14c-2.42-1.77-5.73-2.65-9.92-2.64l-4.29,0.01l-0.01-3.53
				l108.21-0.36l0.13,38.23l-3.62,0.01c-1.88-9.34-4.49-16.03-7.84-20.09c-3.35-4.06-8.08-7.03-14.19-8.92
				c-3.57-1.13-10.24-1.68-20.03-1.65L754.67,92.67z"/>
		</g>
		<g>
			
				<rect x="354.34" y="224.66" transform="matrix(1 -3.298228e-03 3.298228e-03 1 -0.8053 1.9495)" class="st1" width="472.65" height="40.95"/>
			<g>
				<path class="st2" d="M386.74,232.36l0.03,8.9l-0.74,0c-0.56-2.32-1.6-4.1-3.12-5.33c-1.52-1.23-3.24-1.84-5.16-1.84
					c-1.6,0.01-3.07,0.47-4.41,1.4c-1.34,0.93-2.31,2.13-2.92,3.63c-0.79,1.91-1.18,4.03-1.17,6.37c0.01,2.3,0.3,4.39,0.89,6.28
					c0.59,1.88,1.5,3.31,2.74,4.27c1.24,0.96,2.85,1.44,4.82,1.43c1.62-0.01,3.1-0.36,4.44-1.08c1.34-0.71,2.76-1.93,4.24-3.67
					l0.01,2.22c-1.44,1.51-2.93,2.6-4.49,3.28c-1.56,0.68-3.38,1.02-5.46,1.03c-2.74,0.01-5.18-0.53-7.31-1.62
					c-2.13-1.09-3.78-2.66-4.94-4.72c-1.16-2.05-1.75-4.24-1.76-6.57c-0.01-2.45,0.63-4.77,1.9-6.98c1.27-2.2,3-3.91,5.17-5.13
					s4.49-1.83,6.94-1.84c1.81-0.01,3.71,0.38,5.72,1.16c1.16,0.45,1.9,0.67,2.22,0.67c0.4,0,0.75-0.15,1.05-0.45
					c0.3-0.3,0.49-0.77,0.57-1.41L386.74,232.36z"/>
				<path class="st2" d="M403.84,232.53c4.09-0.17,7.42,1.02,9.98,3.55c2.56,2.53,3.85,5.7,3.87,9.51c0.01,3.26-0.93,6.13-2.83,8.61
					c-2.51,3.29-6.08,4.94-10.68,4.96c-4.62,0.02-8.2-1.54-10.74-4.66c-2-2.47-3.01-5.4-3.02-8.8c-0.01-3.81,1.27-7,3.86-9.55
					C396.87,233.6,400.05,232.39,403.84,232.53z M404.07,233.74c-2.35,0.01-4.13,1.21-5.35,3.62c-0.99,1.97-1.48,4.8-1.47,8.49
					c0.01,4.38,0.8,7.62,2.34,9.71c1.08,1.46,2.58,2.19,4.51,2.18c1.3,0,2.39-0.32,3.25-0.96c1.11-0.81,1.97-2.11,2.58-3.88
					c0.61-1.78,0.91-4.09,0.91-6.94c-0.01-3.4-0.34-5.94-0.97-7.62c-0.64-1.68-1.45-2.87-2.43-3.56
					C406.48,234.08,405.35,233.74,404.07,233.74z"/>
				<path class="st2" d="M428.69,232.81l12.72,15.88l-0.04-11.04c-0.01-1.54-0.23-2.58-0.67-3.12c-0.61-0.73-1.63-1.08-3.05-1.05
					l0-0.7l8.48-0.03l0,0.7c-1.09,0.14-1.81,0.32-2.19,0.55c-0.37,0.22-0.66,0.58-0.87,1.08c-0.21,0.5-0.31,1.36-0.3,2.57
					l0.07,21.38l-0.64,0l-17.44-21.33l0.05,16.33c0,1.48,0.35,2.47,1.02,2.99c0.68,0.52,1.45,0.77,2.32,0.77l0.61,0l0,0.7
					l-9.11,0.03l0-0.7c1.41-0.02,2.4-0.31,2.95-0.88c0.55-0.57,0.83-1.54,0.82-2.9l-0.06-18.12l-0.55-0.68
					c-0.55-0.68-1.03-1.13-1.44-1.34c-0.42-0.21-1.02-0.33-1.8-0.35l0-0.7L428.69,232.81z"/>
				<path class="st2" d="M465.26,232.1l0.24,8.56l-0.78,0c-0.37-2.15-1.28-3.87-2.72-5.17c-1.44-1.3-2.99-1.95-4.66-1.95
					c-1.29,0-2.31,0.35-3.06,1.04c-0.75,0.69-1.12,1.48-1.12,2.38c0,0.57,0.14,1.07,0.4,1.51c0.37,0.59,0.96,1.18,1.77,1.76
					c0.59,0.42,1.97,1.15,4.12,2.2c3.01,1.47,5.04,2.85,6.09,4.16c1.04,1.31,1.56,2.81,1.57,4.5c0.01,2.15-0.82,4-2.49,5.55
					c-1.67,1.55-3.79,2.33-6.37,2.34c-0.81,0-1.57-0.08-2.29-0.24c-0.72-0.16-1.62-0.47-2.71-0.92c-0.61-0.25-1.11-0.38-1.5-0.38
					c-0.33,0-0.67,0.13-1.04,0.38c-0.37,0.25-0.66,0.64-0.89,1.16l-0.7,0l-0.03-9.7l0.7,0c0.56,2.72,1.64,4.8,3.23,6.23
					c1.59,1.43,3.3,2.14,5.13,2.13c1.41,0,2.54-0.39,3.38-1.17c0.84-0.77,1.25-1.67,1.25-2.7c0-0.6-0.16-1.19-0.49-1.76
					c-0.32-0.57-0.82-1.1-1.47-1.61c-0.66-0.51-1.82-1.17-3.49-1.99c-2.34-1.14-4.02-2.11-5.05-2.92c-1.03-0.8-1.81-1.71-2.37-2.7
					c-0.55-1-0.83-2.09-0.83-3.29c-0.01-2.05,0.74-3.79,2.24-5.23c1.5-1.44,3.39-2.17,5.67-2.18c0.83,0,1.64,0.1,2.42,0.29
					c0.59,0.15,1.32,0.43,2.17,0.84c0.85,0.41,1.45,0.61,1.79,0.61c0.33,0,0.59-0.1,0.78-0.31c0.19-0.2,0.36-0.69,0.53-1.46
					L465.26,232.1z"/>
				<path class="st2" d="M469.52,232.68l13.26-0.04l0,0.7l-0.66,0c-1,0-1.68,0.11-2.05,0.32c-0.37,0.21-0.64,0.5-0.79,0.86
					c-0.16,0.37-0.23,1.28-0.23,2.75l0.04,12.58c0.01,2.3,0.19,3.82,0.54,4.56c0.35,0.74,0.92,1.36,1.72,1.85
					c0.8,0.49,1.8,0.73,3.01,0.73c1.39,0,2.57-0.32,3.55-0.95c0.98-0.63,1.71-1.49,2.19-2.59c0.48-1.1,0.72-3.01,0.71-5.74
					l-0.03-10.47c0-1.15-0.13-1.97-0.37-2.46c-0.24-0.49-0.55-0.83-0.91-1.02c-0.57-0.29-1.37-0.43-2.41-0.43l0-0.7l8.88-0.03l0,0.7
					l-0.53,0c-0.72,0-1.32,0.15-1.8,0.44c-0.48,0.29-0.83,0.73-1.04,1.31c-0.16,0.4-0.24,1.13-0.24,2.18l0.03,9.75
					c0.01,3.02-0.18,5.2-0.58,6.54c-0.39,1.34-1.36,2.57-2.89,3.7c-1.54,1.13-3.64,1.7-6.3,1.71c-2.22,0.01-3.94-0.28-5.15-0.87
					c-1.66-0.8-2.83-1.83-3.51-3.09c-0.69-1.26-1.03-2.96-1.04-5.09l-0.04-12.58c0-1.48-0.09-2.4-0.26-2.75
					c-0.16-0.36-0.45-0.65-0.86-0.86c-0.4-0.21-1.15-0.31-2.24-0.29L469.52,232.68z"/>
				<path class="st2" d="M521.17,249.17l-0.94,9.02l-22.8,0.08l0-0.7l0.85,0c0.75,0,1.34-0.14,1.8-0.4
					c0.33-0.18,0.58-0.48,0.75-0.91c0.14-0.3,0.2-1.1,0.2-2.39l-0.06-16.89c0-1.31-0.08-2.13-0.22-2.46
					c-0.14-0.33-0.42-0.61-0.85-0.86c-0.42-0.24-1-0.37-1.72-0.36l-0.85,0l0-0.7l13.69-0.05l0,0.7l-1.12,0
					c-0.75,0-1.35,0.14-1.8,0.4c-0.33,0.18-0.59,0.48-0.77,0.91c-0.14,0.3-0.21,1.1-0.2,2.39l0.05,16.36c0,1.31,0.08,2.15,0.24,2.51
					c0.15,0.36,0.45,0.63,0.89,0.8c0.32,0.11,1.08,0.17,2.29,0.16l2.14-0.01c1.36,0,2.5-0.25,3.41-0.73
					c0.91-0.48,1.69-1.24,2.35-2.28c0.66-1.04,1.28-2.57,1.87-4.59L521.17,249.17z"/>
				<path class="st2" d="M543.4,232.43l0.02,6.95l-0.68,0c-0.41-1.6-0.86-2.75-1.36-3.45c-0.49-0.7-1.17-1.25-2.03-1.67
					c-0.48-0.23-1.32-0.34-2.52-0.33l-1.91,0.01l0.07,19.81c0,1.31,0.08,2.13,0.23,2.46c0.15,0.33,0.43,0.62,0.86,0.86
					c0.42,0.24,1,0.37,1.73,0.36l0.85,0l0,0.7l-13.45,0.04l0-0.7l0.85,0c0.74,0,1.34-0.14,1.8-0.4c0.33-0.18,0.59-0.48,0.77-0.91
					c0.14-0.3,0.2-1.1,0.2-2.39l-0.07-19.81l-1.86,0.01c-1.73,0.01-2.98,0.38-3.76,1.11c-1.09,1.03-1.78,2.49-2.07,4.38l-0.72,0
					l-0.02-6.95L543.4,232.43z"/>
				<path class="st2" d="M559.09,257.36l0,0.7l-13.43,0.04l0-0.7l0.85,0c0.75,0,1.35-0.14,1.8-0.4c0.33-0.18,0.58-0.48,0.75-0.91
					c0.14-0.3,0.2-1.1,0.2-2.39l-0.06-16.89c0-1.31-0.08-2.13-0.22-2.46c-0.14-0.33-0.42-0.61-0.85-0.86
					c-0.42-0.24-0.99-0.37-1.72-0.36l-0.85,0l0-0.7l13.43-0.04l0,0.7l-0.85,0c-0.75,0-1.34,0.14-1.8,0.4
					c-0.33,0.18-0.59,0.48-0.77,0.91c-0.14,0.3-0.21,1.1-0.2,2.39l0.06,16.89c0,1.31,0.08,2.13,0.23,2.46
					c0.15,0.33,0.43,0.62,0.86,0.86c0.42,0.24,1,0.37,1.72,0.36L559.09,257.36z"/>
				<path class="st2" d="M569.56,232.35l12.72,15.88l-0.04-11.04c-0.01-1.54-0.23-2.58-0.67-3.12c-0.61-0.73-1.63-1.08-3.05-1.05
					l0-0.7l8.48-0.03l0,0.7c-1.09,0.14-1.81,0.32-2.19,0.55c-0.37,0.22-0.66,0.58-0.87,1.08c-0.21,0.5-0.31,1.36-0.3,2.57
					l0.07,21.38l-0.64,0l-17.44-21.33l0.05,16.33c0,1.48,0.35,2.47,1.02,2.99c0.68,0.52,1.45,0.77,2.32,0.77l0.61,0l0,0.7
					l-9.11,0.03l0-0.7c1.41-0.02,2.4-0.31,2.95-0.88c0.55-0.57,0.83-1.54,0.82-2.9l-0.06-18.12l-0.55-0.68
					c-0.55-0.68-1.03-1.13-1.44-1.34c-0.42-0.21-1.02-0.33-1.8-0.35l0-0.7L569.56,232.35z"/>
				<path class="st2" d="M614.67,231.61l0.03,9.05l-0.7,0c-0.85-2.47-2.13-4.35-3.83-5.63c-1.7-1.28-3.55-1.92-5.56-1.91
					c-1.92,0.01-3.51,0.55-4.79,1.64c-1.27,1.08-2.17,2.59-2.69,4.53c-0.52,1.93-0.78,3.92-0.78,5.95c0.01,2.46,0.31,4.62,0.89,6.48
					c0.59,1.85,1.53,3.21,2.83,4.08c1.3,0.87,2.84,1.3,4.62,1.29c0.62,0,1.25-0.07,1.9-0.21c0.65-0.13,1.32-0.33,2-0.58l-0.02-5.34
					c0-1.01-0.08-1.66-0.22-1.96c-0.14-0.3-0.43-0.56-0.86-0.8c-0.44-0.24-0.96-0.36-1.58-0.36l-0.66,0l0-0.7l12.48-0.04l0,0.7
					c-0.95,0.07-1.61,0.2-1.98,0.4c-0.37,0.2-0.66,0.52-0.86,0.98c-0.11,0.24-0.17,0.83-0.16,1.76l0.02,5.34
					c-1.64,0.74-3.35,1.3-5.12,1.68c-1.77,0.38-3.61,0.57-5.52,0.58c-2.44,0.01-4.46-0.32-6.07-0.98c-1.61-0.66-3.03-1.52-4.27-2.6
					c-1.23-1.07-2.2-2.29-2.9-3.64c-0.89-1.74-1.34-3.69-1.35-5.85c-0.01-3.86,1.33-7.13,4.04-9.8c2.71-2.67,6.12-4.02,10.23-4.03
					c1.27,0,2.42,0.09,3.45,0.29c0.56,0.1,1.46,0.38,2.7,0.85c1.24,0.47,1.98,0.7,2.21,0.7c0.35,0,0.68-0.13,0.98-0.39
					c0.3-0.26,0.58-0.75,0.83-1.47L614.67,231.61z"/>
				<path class="st2" d="M646,231.51l0.24,8.56l-0.78,0c-0.37-2.15-1.28-3.87-2.72-5.17c-1.44-1.3-2.99-1.95-4.66-1.95
					c-1.29,0-2.31,0.35-3.06,1.04c-0.75,0.69-1.12,1.48-1.12,2.38c0,0.57,0.14,1.07,0.4,1.51c0.37,0.59,0.96,1.18,1.77,1.76
					c0.59,0.42,1.97,1.15,4.12,2.2c3.01,1.47,5.04,2.85,6.09,4.16c1.04,1.31,1.56,2.81,1.57,4.5c0.01,2.15-0.82,4-2.49,5.55
					c-1.67,1.55-3.79,2.33-6.37,2.34c-0.81,0-1.57-0.08-2.29-0.24c-0.72-0.16-1.62-0.47-2.71-0.92c-0.61-0.25-1.11-0.38-1.5-0.38
					c-0.33,0-0.67,0.13-1.04,0.38c-0.37,0.25-0.66,0.64-0.89,1.16l-0.7,0l-0.03-9.7l0.7,0c0.56,2.72,1.64,4.8,3.23,6.23
					c1.59,1.43,3.3,2.14,5.13,2.13c1.41,0,2.54-0.39,3.38-1.17c0.84-0.77,1.25-1.67,1.25-2.7c0-0.6-0.16-1.19-0.49-1.76
					c-0.32-0.57-0.82-1.1-1.47-1.61c-0.66-0.51-1.82-1.17-3.49-1.99c-2.34-1.14-4.02-2.11-5.05-2.92c-1.03-0.8-1.81-1.71-2.37-2.7
					c-0.55-1-0.83-2.09-0.83-3.29c-0.01-2.05,0.74-3.79,2.24-5.23c1.5-1.44,3.39-2.17,5.67-2.18c0.83,0,1.64,0.1,2.42,0.29
					c0.59,0.15,1.32,0.43,2.17,0.84c0.85,0.41,1.45,0.61,1.79,0.61c0.33,0,0.59-0.1,0.78-0.31c0.19-0.2,0.36-0.69,0.53-1.46
					L646,231.51z"/>
				<path class="st2" d="M659.92,233.52l0.03,10.45l0.51,0c1.63-0.01,2.81-0.52,3.54-1.55c0.73-1.02,1.19-2.53,1.39-4.53l0.72,0
					l0.04,13.45l-0.72,0c-0.16-1.47-0.48-2.66-0.97-3.59c-0.49-0.93-1.06-1.56-1.7-1.88c-0.64-0.32-1.58-0.48-2.8-0.47l0.02,7.23
					c0,1.41,0.07,2.28,0.19,2.59c0.12,0.32,0.35,0.57,0.68,0.77c0.33,0.2,0.86,0.3,1.59,0.3l1.53-0.01c2.4-0.01,4.32-0.57,5.76-1.69
					c1.44-1.12,2.47-2.81,3.1-5.09l0.7,0l-1.13,8.17l-22.2,0.07l0-0.7l0.85,0c0.75,0,1.35-0.14,1.8-0.4
					c0.33-0.18,0.58-0.48,0.75-0.91c0.14-0.3,0.2-1.1,0.2-2.39l-0.06-16.89c0-1.16-0.04-1.88-0.1-2.14
					c-0.13-0.44-0.36-0.78-0.7-1.02c-0.48-0.35-1.14-0.53-1.97-0.52l-0.85,0l0-0.7l21.5-0.07l0.03,7.59l-0.72,0
					c-0.37-1.86-0.89-3.18-1.56-3.99c-0.67-0.81-1.6-1.4-2.82-1.77c-0.71-0.23-2.03-0.33-3.98-0.33L659.92,233.52z"/>
				<path class="st2" d="M685.57,245.94l0.02,7.2c0,1.39,0.09,2.26,0.26,2.62c0.17,0.36,0.47,0.65,0.9,0.86
					c0.43,0.21,1.23,0.32,2.41,0.31l0,0.7l-13.14,0.04l0-0.7c1.19,0,1.99-0.12,2.41-0.34c0.42-0.22,0.72-0.51,0.89-0.86
					c0.17-0.35,0.25-1.23,0.25-2.61l-0.05-16.67c0-1.39-0.09-2.26-0.26-2.62c-0.17-0.36-0.47-0.64-0.9-0.86
					c-0.43-0.21-1.23-0.32-2.41-0.31l0-0.7l11.93-0.04c3.11-0.01,5.38,0.2,6.82,0.62c1.44,0.42,2.62,1.21,3.53,2.36
					c0.91,1.15,1.37,2.51,1.38,4.06c0.01,1.89-0.67,3.46-2.03,4.7c-0.87,0.79-2.09,1.38-3.65,1.77l6.2,8.67
					c0.81,1.12,1.39,1.82,1.73,2.1c0.52,0.39,1.12,0.6,1.8,0.64l0,0.7l-8.09,0.03l-8.31-11.68L685.57,245.94z M685.53,233.35
					l0.04,11.25l1.08,0c1.75-0.01,3.07-0.17,3.94-0.5c0.87-0.32,1.55-0.91,2.05-1.75c0.5-0.84,0.74-1.94,0.74-3.29
					c-0.01-1.96-0.47-3.4-1.39-4.33c-0.92-0.93-2.39-1.39-4.43-1.39L685.53,233.35z"/>
				<path class="st2" d="M729.48,231.82l0,0.7c-0.93,0.16-1.77,0.66-2.5,1.5c-0.53,0.63-1.31,2.12-2.35,4.46l-8.78,19.65l-0.63,0
					l-8.87-20.39c-1.07-2.46-1.78-3.9-2.14-4.33c-0.36-0.43-1.04-0.7-2.04-0.81l0-0.7l12.31-0.04l0,0.7l-0.42,0
					c-1.11,0-1.87,0.15-2.27,0.42c-0.29,0.19-0.43,0.47-0.43,0.83c0,0.23,0.05,0.49,0.15,0.8c0.1,0.31,0.44,1.14,1.03,2.49
					l5.52,12.76l5.04-11.4c0.6-1.38,0.97-2.3,1.11-2.77c0.14-0.47,0.2-0.87,0.2-1.19c0-0.38-0.1-0.71-0.31-1
					c-0.2-0.29-0.5-0.51-0.89-0.66c-0.54-0.21-1.26-0.32-2.16-0.31l0-0.7L729.48,231.82z"/>
				<path class="st2" d="M744.17,256.75l0,0.7l-13.43,0.04l0-0.7l0.85,0c0.75,0,1.35-0.14,1.8-0.4c0.33-0.18,0.58-0.48,0.75-0.91
					c0.14-0.3,0.2-1.1,0.2-2.39l-0.06-16.89c0-1.31-0.08-2.13-0.22-2.46c-0.14-0.33-0.42-0.61-0.85-0.86
					c-0.42-0.24-0.99-0.37-1.72-0.36l-0.85,0l0-0.7l13.43-0.04l0,0.7l-0.85,0c-0.75,0-1.34,0.14-1.8,0.4
					c-0.33,0.18-0.59,0.48-0.77,0.91c-0.14,0.3-0.21,1.1-0.2,2.39l0.06,16.89c0,1.31,0.08,2.13,0.23,2.46
					c0.15,0.33,0.43,0.62,0.86,0.86c0.42,0.24,1,0.37,1.72,0.36L744.17,256.75z"/>
				<path class="st2" d="M770.86,231.09l0.03,8.9l-0.74,0c-0.56-2.32-1.6-4.1-3.12-5.33c-1.52-1.23-3.24-1.84-5.16-1.84
					c-1.6,0.01-3.07,0.47-4.41,1.4c-1.34,0.93-2.31,2.13-2.92,3.63c-0.79,1.91-1.18,4.03-1.17,6.37c0.01,2.3,0.3,4.39,0.89,6.28
					c0.59,1.88,1.5,3.31,2.74,4.27c1.24,0.96,2.85,1.44,4.82,1.43c1.62-0.01,3.1-0.36,4.44-1.08c1.34-0.71,2.76-1.93,4.24-3.67
					l0.01,2.22c-1.44,1.51-2.93,2.6-4.49,3.28c-1.56,0.68-3.38,1.02-5.46,1.03c-2.74,0.01-5.18-0.53-7.31-1.62
					c-2.13-1.09-3.78-2.66-4.94-4.72c-1.16-2.05-1.75-4.24-1.76-6.57c-0.01-2.45,0.63-4.77,1.9-6.98c1.27-2.2,3-3.91,5.17-5.13
					c2.17-1.22,4.49-1.83,6.94-1.84c1.81-0.01,3.71,0.38,5.72,1.16c1.16,0.45,1.9,0.67,2.22,0.67c0.4,0,0.75-0.15,1.05-0.45
					c0.3-0.3,0.49-0.77,0.57-1.41L770.86,231.09z"/>
				<path class="st2" d="M783.56,233.12l0.03,10.45l0.51,0c1.63-0.01,2.81-0.52,3.54-1.55c0.73-1.02,1.19-2.53,1.39-4.53l0.72,0
					l0.04,13.45l-0.72,0c-0.16-1.47-0.48-2.66-0.97-3.59c-0.49-0.93-1.06-1.56-1.7-1.88c-0.64-0.32-1.58-0.48-2.8-0.47l0.02,7.23
					c0,1.41,0.07,2.28,0.19,2.59c0.12,0.32,0.35,0.57,0.68,0.77c0.33,0.2,0.86,0.3,1.59,0.3l1.53-0.01c2.4-0.01,4.32-0.57,5.76-1.69
					c1.44-1.12,2.47-2.81,3.1-5.09l0.7,0l-1.13,8.17l-22.2,0.07l0-0.7l0.85,0c0.75,0,1.35-0.14,1.8-0.4
					c0.33-0.18,0.58-0.48,0.75-0.91c0.14-0.3,0.2-1.1,0.2-2.39l-0.06-16.89c0-1.16-0.04-1.88-0.1-2.14
					c-0.13-0.44-0.36-0.78-0.7-1.02c-0.48-0.35-1.14-0.53-1.97-0.52l-0.85,0l0-0.7l21.5-0.07l0.03,7.59l-0.72,0
					c-0.37-1.86-0.89-3.18-1.56-3.99c-0.67-0.81-1.6-1.4-2.82-1.77c-0.71-0.23-2.03-0.33-3.98-0.33L783.56,233.12z"/>
				<path class="st2" d="M817.07,230.94l0.24,8.56l-0.78,0c-0.37-2.15-1.28-3.87-2.72-5.17c-1.44-1.3-2.99-1.95-4.66-1.95
					c-1.29,0-2.31,0.35-3.06,1.04c-0.75,0.69-1.12,1.48-1.12,2.38c0,0.57,0.14,1.07,0.4,1.51c0.37,0.59,0.96,1.18,1.77,1.76
					c0.59,0.42,1.97,1.15,4.12,2.2c3.01,1.47,5.04,2.85,6.09,4.16c1.04,1.31,1.56,2.81,1.57,4.5c0.01,2.15-0.82,4-2.49,5.55
					c-1.67,1.55-3.79,2.33-6.37,2.34c-0.81,0-1.57-0.08-2.29-0.24c-0.72-0.16-1.62-0.47-2.71-0.92c-0.61-0.25-1.11-0.38-1.5-0.38
					c-0.33,0-0.67,0.13-1.04,0.38c-0.37,0.25-0.66,0.64-0.89,1.16l-0.7,0l-0.03-9.7l0.7,0c0.56,2.72,1.64,4.8,3.23,6.23
					c1.59,1.43,3.3,2.14,5.13,2.13c1.41,0,2.54-0.39,3.38-1.17c0.84-0.77,1.25-1.67,1.25-2.7c0-0.6-0.16-1.19-0.49-1.76
					c-0.32-0.57-0.82-1.1-1.47-1.61c-0.66-0.51-1.82-1.17-3.49-1.99c-2.34-1.14-4.02-2.11-5.05-2.92c-1.03-0.8-1.81-1.71-2.37-2.7
					c-0.55-1-0.83-2.09-0.83-3.29c-0.01-2.05,0.74-3.79,2.24-5.23c1.5-1.44,3.39-2.17,5.67-2.18c0.83,0,1.64,0.1,2.42,0.29
					c0.59,0.15,1.32,0.43,2.17,0.84c0.85,0.41,1.45,0.61,1.79,0.61c0.33,0,0.59-0.1,0.78-0.31c0.19-0.2,0.36-0.69,0.53-1.46
					L817.07,230.94z"/>
			</g>
		</g>
	</g>
</g>
</svg>
